# xmcd
#
# Track frame offsets: 
#        150
#        26115
#        52205
#        78575
#        99699
#        123561
#        144567
#        166643
#        195930
#        226779
#        253792
#        280339
#
# Disc length: 3994 seconds
#
# Revision: 0
# Processed by: cddbd v1.5.2PL0 Copyright (c) Steve Scherf et al.
# Submitted via: ExactAudioCopy v1.3
#
DISCID=a50f980c
DTITLE=Awek - Barber Shop
DYEAR=2000
DGENRE=Modern Electric Blues
TTITLE0=Going Back On The Road
TTITLE1=Life Gives Me To Believe
TTITLE2=Together We'll Synchronize
TTITLE3=Brother, Brother
TTITLE4=Shades Of Night
TTITLE5=Work
TTITLE6=You Can't Judge A Book
TTITLE7=Tell Me Who Do You Love
TTITLE8=Play The Game
TTITLE9=Hear Me Talking
TTITLE10=Rollin' On The Highway
TTITLE11=Flamenco Woman
EXTD=
EXTT0=
EXTT1=
EXTT2=
EXTT3=
EXTT4=
EXTT5=
EXTT6=
EXTT7=
EXTT8=
EXTT9=
EXTT10=
EXTT11=
PLAYORDER=
